<svg xmlns="http://www.w3.org/2000/svg" viewBox="0 0 64 64" role="img" aria-label="Favicon Pablo Suárez">
  <rect width="64" height="64" rx="12" fill="#0b1220" />
  <rect x="9" y="9" width="46" height="46" rx="10" fill="none" stroke="#6ea8fe" stroke-width="2.6" />
  <path
    d="M18 40c-4 0-7-3-7-7s3-7 7-7c2-6 7-10 14-10 6 0 11 4 13 9 4 0 7 3 7 7s-3 8-8 8H18z"
    fill="none"
    stroke="#8ef0c5"
    stroke-width="2.2"
    stroke-linecap="round"
    stroke-linejoin="round"
  />
  <circle cx="24" cy="33" r="2.2" fill="#8ef0c5" />
  <circle cx="32" cy="29" r="2.2" fill="#d8e7ff" />
  <circle cx="40" cy="33" r="2.2" fill="#8ef0c5" />
  <path
    d="M24 33l8-4 8 4"
    fill="none"
    stroke="#6ea8fe"
    stroke-width="2"
    stroke-linecap="round"
    stroke-linejoin="round"
  />
  <path d="M24 40h16" stroke="#6ea8fe" stroke-width="1.8" stroke-linecap="round" />
</svg>
